<svg height="512" viewBox="0 0 128 128" width="512" xmlns="http://www.w3.org/2000/svg"><g id="Circle_Grid" data-name="Circle Grid"><circle cx="64" cy="64" fill="#f6c863" r="64"/></g><g id="icon"><path d="m42.382 105a28.7 28.7 0 0 0 5.059-1.616 12.266 12.266 0 0 0 7.159-13.458l-1.846-10.226h22.492l-1.846 10.226a12.266 12.266 0 0 0 7.158 13.457 28.7 28.7 0 0 0 5.06 1.617z" fill="#16a897"/><path d="m94.621 50.433c0 13.639-17.1 37.516-30.621 37.516-13.485 0-30.621-23.877-30.621-37.516s13.711-27.433 30.621-27.433 30.621 13.794 30.621 27.433z" fill="#2cbfae"/><path d="m90.005 53.792a16.71 16.71 0 0 1 -8.848 6.989 19.62 19.62 0 0 1 -14.657-1.026s8.031-22.716 23.505-5.963z" fill="#16a897"/><path d="m75.021 59.653a17.874 17.874 0 0 1 -5.836-.971c1.432-3.05 4.877-9 9.947-9 2.51 0 5.259 1.442 8.19 4.292a13.548 13.548 0 0 1 -6.758 4.844 19.106 19.106 0 0 1 -5.543.835z" fill="#414451"/><path d="m80.339 51.391c.072.485-.75 1.016-1.827 1.175s-2.017-.113-2.089-.6.749-1.025 1.826-1.183 2.017.117 2.09.608z" fill="#eeefee"/><path d="m37.995 53.792a16.71 16.71 0 0 0 8.848 6.989 19.62 19.62 0 0 0 14.657-1.026s-8.031-22.716-23.505-5.963z" fill="#16a897"/><path d="m52.979 59.653a17.874 17.874 0 0 0 5.836-.971c-1.432-3.05-4.877-9-9.947-9-2.51 0-5.259 1.442-8.19 4.292a13.548 13.548 0 0 0 6.758 4.844 19.106 19.106 0 0 0 5.543.835z" fill="#414451"/><path d="m47.661 51.391c-.072.485.75 1.016 1.827 1.175s2.017-.113 2.089-.6-.749-1.025-1.826-1.183-2.017.117-2.09.608z" fill="#eeefee"/><g fill="#16a897"><ellipse cx="64.002" cy="78.759" rx="6.582" ry=".94"/><path d="m65 69.217-.375.738a.552.552 0 0 0 .3.764 4.543 4.543 0 0 0 2.074.3.54.54 0 0 0 .381-.846 2.771 2.771 0 0 0 -1.8-1.25.559.559 0 0 0 -.58.294z"/><path d="m63 69.217.375.738a.552.552 0 0 1 -.3.764 4.543 4.543 0 0 1 -2.074.3.54.54 0 0 1 -.381-.846 2.771 2.771 0 0 1 1.8-1.25.559.559 0 0 1 .58.294z"/></g></g></svg>